<?xml version="1.0" encoding="utf-8"?>
<!-- Generator: Adobe Illustrator 27.5.0, SVG Export Plug-In . SVG Version: 6.00 Build 0)  -->
<svg version="1.1" id="Layer_1" xmlns="http://www.w3.org/2000/svg" xmlns:xlink="http://www.w3.org/1999/xlink" x="0px" y="0px"
	 viewBox="0 0 566.9 566.9" style="enable-background:new 0 0 566.9 566.9;" xml:space="preserve">
<style type="text/css">
	.st0{fill:#FFFFFF;stroke:#F15A29;stroke-width:12;stroke-miterlimit:10;}
	.st1{font-family:'StayKindAndShine-Regular';}
	.st2{font-size:119.7505px;}
	.st3{fill:none;stroke:#ED1C24;stroke-width:10;}
	.st4{fill:none;stroke:#F26522;stroke-width:10;}
	.st5{fill:#FFDE17;}
	.st6{font-size:184.2873px;}
	.st7{font-size:83.731px;}
	.st8{fill:none;stroke:#ED1C24;stroke-width:7;}
</style>
<ellipse class="st0" cx="271.2" cy="277.9" rx="243.4" ry="234"/>
<text transform="matrix(1 0 0 1 593.0654 -22.7451)" class="st1" style="font-size:12px;">Lorem ipsum</text>
<g>
	<text transform="matrix(0.8638 0 0 1 112.6694 182.2905)" class="st1 st2">Shutter</text>
	<g>
		<text transform="matrix(0.8638 0 0 1 169.3623 238.9833)" class="st3 st1 st2">Shutter</text>
		<text transform="matrix(0.8638 0 0 1 166.5278 236.1489)" class="st3 st1 st2">Shutter</text>
		<text transform="matrix(0.8638 0 0 1 163.6934 233.3144)" class="st3 st1 st2">Shutter</text>
		<text transform="matrix(0.8638 0 0 1 160.8584 230.4794)" class="st3 st1 st2">Shutter</text>
		<text transform="matrix(0.8638 0 0 1 158.0239 227.645)" class="st3 st1 st2">Shutter</text>
		<text transform="matrix(0.8638 0 0 1 155.189 224.8105)" class="st3 st1 st2">Shutter</text>
		<text transform="matrix(0.8638 0 0 1 152.3545 221.9755)" class="st3 st1 st2">Shutter</text>
		<text transform="matrix(0.8638 0 0 1 149.5195 219.1411)" class="st3 st1 st2">Shutter</text>
		<text transform="matrix(0.8638 0 0 1 146.6851 216.3066)" class="st3 st1 st2">Shutter</text>
		<text transform="matrix(0.8638 0 0 1 143.8506 213.4716)" class="st3 st1 st2">Shutter</text>
		<text transform="matrix(0.8638 0 0 1 141.0156 210.6371)" class="st3 st1 st2">Shutter</text>
		<text transform="matrix(0.8638 0 0 1 138.1812 207.8022)" class="st3 st1 st2">Shutter</text>
		<text transform="matrix(0.8638 0 0 1 135.3467 204.9677)" class="st3 st1 st2">Shutter</text>
		<text transform="matrix(0.8638 0 0 1 132.5117 202.1332)" class="st3 st1 st2">Shutter</text>
		<text transform="matrix(0.8638 0 0 1 129.6772 199.2983)" class="st3 st1 st2">Shutter</text>
		<text transform="matrix(0.8638 0 0 1 126.8428 196.4638)" class="st3 st1 st2">Shutter</text>
		<text transform="matrix(0.8638 0 0 1 124.0078 193.6293)" class="st3 st1 st2">Shutter</text>
		<text transform="matrix(0.8638 0 0 1 121.1733 190.7944)" class="st3 st1 st2">Shutter</text>
		<text transform="matrix(0.8638 0 0 1 118.3389 187.9599)" class="st3 st1 st2">Shutter</text>
		<text transform="matrix(0.8638 0 0 1 115.5039 185.1254)" class="st3 st1 st2">Shutter</text>
		<text transform="matrix(0.8638 0 0 1 112.6694 182.2905)" class="st3 st1 st2">Shutter</text>
	</g>
	<g>
		<text transform="matrix(0.8638 0 0 1 141.0156 210.6371)" class="st4 st1 st2">Shutter</text>
		<text transform="matrix(0.8638 0 0 1 138.1812 207.8022)" class="st4 st1 st2">Shutter</text>
		<text transform="matrix(0.8638 0 0 1 135.3467 204.9677)" class="st4 st1 st2">Shutter</text>
		<text transform="matrix(0.8638 0 0 1 132.5117 202.1332)" class="st4 st1 st2">Shutter</text>
		<text transform="matrix(0.8638 0 0 1 129.6772 199.2983)" class="st4 st1 st2">Shutter</text>
		<text transform="matrix(0.8638 0 0 1 126.8428 196.4638)" class="st4 st1 st2">Shutter</text>
		<text transform="matrix(0.8638 0 0 1 124.0078 193.6293)" class="st4 st1 st2">Shutter</text>
		<text transform="matrix(0.8638 0 0 1 121.1733 190.7944)" class="st4 st1 st2">Shutter</text>
		<text transform="matrix(0.8638 0 0 1 118.3389 187.9599)" class="st4 st1 st2">Shutter</text>
		<text transform="matrix(0.8638 0 0 1 115.5039 185.1254)" class="st4 st1 st2">Shutter</text>
		<text transform="matrix(0.8638 0 0 1 112.6694 182.2905)" class="st4 st1 st2">Shutter</text>
	</g>
	<text transform="matrix(0.8638 0 0 1 112.6694 182.2905)" class="st5 st1 st2">Shutter</text>
</g>
<g>
	<text transform="matrix(0.8638 0 0 1 112.6694 395.6)" class="st1 st6">film</text>
	<g>
		<text transform="matrix(0.8638 0 0 1 169.3623 452.2924)" class="st3 st1 st6">film</text>
		<text transform="matrix(0.8638 0 0 1 166.5273 449.4584)" class="st3 st1 st6">film</text>
		<text transform="matrix(0.8638 0 0 1 163.6929 446.6235)" class="st3 st1 st6">film</text>
		<text transform="matrix(0.8638 0 0 1 160.8584 443.7885)" class="st3 st1 st6">film</text>
		<text transform="matrix(0.8638 0 0 1 158.0234 440.9545)" class="st3 st1 st6">film</text>
		<text transform="matrix(0.8638 0 0 1 155.189 438.1196)" class="st3 st1 st6">film</text>
		<text transform="matrix(0.8638 0 0 1 152.3545 435.2846)" class="st3 st1 st6">film</text>
		<text transform="matrix(0.8638 0 0 1 149.5195 432.4506)" class="st3 st1 st6">film</text>
		<text transform="matrix(0.8638 0 0 1 146.6851 429.6157)" class="st3 st1 st6">film</text>
		<text transform="matrix(0.8638 0 0 1 143.8506 426.7807)" class="st3 st1 st6">film</text>
		<text transform="matrix(0.8638 0 0 1 141.0156 423.9467)" class="st3 st1 st6">film</text>
		<text transform="matrix(0.8638 0 0 1 138.1812 421.1118)" class="st3 st1 st6">film</text>
		<text transform="matrix(0.8638 0 0 1 135.3467 418.2768)" class="st3 st1 st6">film</text>
		<text transform="matrix(0.8638 0 0 1 132.5117 415.4428)" class="st3 st1 st6">film</text>
		<text transform="matrix(0.8638 0 0 1 129.6772 412.6078)" class="st3 st1 st6">film</text>
		<text transform="matrix(0.8638 0 0 1 126.8428 409.7729)" class="st3 st1 st6">film</text>
		<text transform="matrix(0.8638 0 0 1 124.0078 406.9389)" class="st3 st1 st6">film</text>
		<text transform="matrix(0.8638 0 0 1 121.1733 404.1039)" class="st3 st1 st6">film</text>
		<text transform="matrix(0.8638 0 0 1 118.3389 401.269)" class="st3 st1 st6">film</text>
		<text transform="matrix(0.8638 0 0 1 115.5039 398.435)" class="st3 st1 st6">film</text>
		<text transform="matrix(0.8638 0 0 1 112.6694 395.6)" class="st3 st1 st6">film</text>
	</g>
	<g>
		<text transform="matrix(0.8638 0 0 1 141.0156 423.9467)" class="st4 st1 st6">film</text>
		<text transform="matrix(0.8638 0 0 1 138.1812 421.1118)" class="st4 st1 st6">film</text>
		<text transform="matrix(0.8638 0 0 1 135.3467 418.2768)" class="st4 st1 st6">film</text>
		<text transform="matrix(0.8638 0 0 1 132.5117 415.4428)" class="st4 st1 st6">film</text>
		<text transform="matrix(0.8638 0 0 1 129.6772 412.6078)" class="st4 st1 st6">film</text>
		<text transform="matrix(0.8638 0 0 1 126.8428 409.7729)" class="st4 st1 st6">film</text>
		<text transform="matrix(0.8638 0 0 1 124.0078 406.9389)" class="st4 st1 st6">film</text>
		<text transform="matrix(0.8638 0 0 1 121.1733 404.1039)" class="st4 st1 st6">film</text>
		<text transform="matrix(0.8638 0 0 1 118.3389 401.269)" class="st4 st1 st6">film</text>
		<text transform="matrix(0.8638 0 0 1 115.5039 398.435)" class="st4 st1 st6">film</text>
		<text transform="matrix(0.8638 0 0 1 112.6694 395.6)" class="st4 st1 st6">film</text>
	</g>
	<text transform="matrix(0.8638 0 0 1 112.6694 395.6)" class="st5 st1 st6">film</text>
</g>
<g>
	<text transform="matrix(0.8638 0 0 1 236.6748 275.0319)" class="st1 st7">&amp;</text>
	<g>
		<text transform="matrix(0.8638 0 0 1 265.0215 303.3791)" class="st8 st1 st7">&amp;</text>
		<text transform="matrix(0.8638 0 0 1 262.1865 300.5441)" class="st8 st1 st7">&amp;</text>
		<text transform="matrix(0.8638 0 0 1 259.3521 297.7092)" class="st8 st1 st7">&amp;</text>
		<text transform="matrix(0.8638 0 0 1 256.5176 294.8742)" class="st8 st1 st7">&amp;</text>
		<text transform="matrix(0.8638 0 0 1 253.6826 292.0402)" class="st8 st1 st7">&amp;</text>
		<text transform="matrix(0.8638 0 0 1 250.8481 289.2053)" class="st8 st1 st7">&amp;</text>
		<text transform="matrix(0.8638 0 0 1 248.0137 286.3703)" class="st8 st1 st7">&amp;</text>
		<text transform="matrix(0.8638 0 0 1 245.1787 283.5363)" class="st8 st1 st7">&amp;</text>
		<text transform="matrix(0.8638 0 0 1 242.3442 280.7014)" class="st8 st1 st7">&amp;</text>
		<text transform="matrix(0.8638 0 0 1 239.5098 277.8669)" class="st8 st1 st7">&amp;</text>
		<text transform="matrix(0.8638 0 0 1 236.6748 275.0319)" class="st8 st1 st7">&amp;</text>
	</g>
	<text transform="matrix(0.8638 0 0 1 236.6748 275.0319)" class="st4 st1 st7">&amp;</text>
	<text transform="matrix(0.8638 0 0 1 236.6748 275.0319)" class="st5 st1 st7">&amp;</text>
</g>
</svg>
